Coordinates
version=1
nRows=26
nColumns=27
inDegrees=yes

Units are S.I. units (second, meters, Newtons, ...)
If the header above contains a line with 'inDegrees', this indicates whether rotational values are in degrees (yes) or radians (no).

endheader
time	pelvis_rotation	pelvis_tilt	pelvis_list	pelvis_tx	pelvis_ty	pelvis_tz	hip_flexion_r	hip_adduction_r	hip_rotation_r	knee_angle_r	knee_rotation_r	knee_adduction_r	knee_angle_r_beta	ankle_angle_r	subtalar_angle_r	mtp_angle_r	hip_flexion_l	hip_adduction_l	hip_rotation_l	knee_angle_l	knee_rotation_l	knee_adduction_l	knee_angle_l_beta	ankle_angle_l	subtalar_angle_l	mtp_angle_l
      5.03500000	      6.85412351	    -38.93798081	      8.64143607	     -0.06745480	      0.63352028	     -1.11565428	    110.37265326	    -42.28349882	     -1.89987049	     77.35061533	     -8.76922176	      9.31350421	      1.35002292	      6.49649438	      7.00947420	      0.00000000	     98.31694252	    -35.41221322	    -15.15617719	     68.68771513	     -6.63841075	     -9.42532452	      1.19882678	      1.00923638	     16.04885047	      0.00000000
      5.04000000	      7.18236107	    -38.55837475	      8.72411683	     -0.06643025	      0.63576334	     -1.11617196	    109.55422454	    -42.82322894	     -2.84868782	     76.91263551	     -9.25980296	      9.62842832	      1.34237873	      6.55091316	      7.22925788	      0.00000000	     97.59811407	    -35.00370739	    -15.84412783	     68.25822398	     -7.04609064	     -9.68922028	      1.19133075	      0.96226547	     16.10485575	      0.00000000
      5.04500000	      7.17811825	    -38.46727468	      8.80125296	     -0.06620764	      0.63704688	     -1.11649244	    109.29411229	    -42.87671804	     -2.93307512	     76.66299542	     -9.23397225	      9.63040223	      1.33802168	      6.49690541	      7.38376416	      0.00000000	     97.18930900	    -34.98564226	    -16.05331328	     68.03867362	     -6.92619326	     -9.68712434	      1.18749887	      0.92247824	     16.10042245	      0.00000000
      5.05000000	      7.09163296	    -38.36983812	      8.84353044	     -0.06598086	      0.63833340	     -1.11681306	    109.00162797	    -42.84249509	     -3.02100231	     76.39669677	     -9.21211077	      9.63059731	      1.33337390	      6.43165102	      7.48373741	      0.00000000	     96.76061411	    -35.04116441	    -16.30139786	     67.82446110	     -6.82729087	     -9.68505346	      1.18376016	      0.86690796	     16.07726400	      0.00000000
      5.05500000	      6.85503700	    -38.62691397	      8.66198781	     -0.06652740	      0.63873411	     -1.11694935	    109.02780535	    -42.60696452	     -2.67317933	     76.28099202	     -8.65784331	      9.32511493	      1.33135447	      6.36579334	      7.51570731	      0.00000000	     96.99092827	    -35.29117325	    -15.61717554	     67.83836215	     -6.16385149	     -9.41474693	      1.18400278	      0.83082625	     15.92128920	      0.00000000
      5.06000000	      7.20155128	    -38.27005479	      8.62469207	     -0.06544661	      0.64078148	     -1.11756866	    108.12313977	    -43.21652773	     -3.82923520	     75.84776181	     -9.18266161	      9.63451901	      1.32379317	      6.34213372	      7.85071684	      0.00000000	     96.46247190	    -34.81860397	    -16.03085471	     67.48710902	     -6.56768776	     -9.67943946	      1.17787226	      0.84095136	     15.98178321	      0.00000000
      5.06500000	      6.97970669	    -38.13878795	      8.88076510	     -0.06518217	      0.64195111	     -1.11789524	    108.09096043	    -42.96119056	     -3.46988910	     75.64126275	     -9.13728000	      9.63528637	      1.32018909	      6.29841868	      7.91555744	      0.00000000	     95.73759446	    -35.03005164	    -16.68813270	     67.26328267	     -6.49282659	     -9.68047055	      1.17396575	      0.85967592	     16.08683324	      0.00000000
      5.07000000	      6.64840793	    -38.34523028	      8.82414986	     -0.06569027	      0.64223792	     -1.11810243	    108.25906412	    -42.60643719	     -2.85210253	     75.55465557	     -8.55635461	      9.32562448	      1.31867750	      6.16923390	      7.94238351	      0.00000000	     95.75717830	    -35.38823099	    -16.26487886	     67.28647384	     -5.84426089	     -9.41123804	      1.17437051	      0.86395188	     15.98208391	      0.00000000
      5.07500000	      6.89713841	    -37.98515806	      8.89149464	     -0.06457771	      0.64426955	     -1.11872321	    107.48465134	    -43.04764778	     -3.78117806	     75.13969256	     -9.08984858	      9.63646697	      1.31143503	      6.17630833	      8.22210797	      0.00000000	     95.08761167	    -35.00865558	    -16.90306790	     66.92538841	     -6.26974309	     -9.67743856	      1.16806838	      0.84004912	     16.01733076	      0.00000000
      5.08000000	      6.36871956	    -38.24544322	      8.71878578	     -0.06510367	      0.64464951	     -1.11880079	    107.59080590	    -42.47062389	     -3.21838691	     75.02641703	     -8.49999130	      9.32385472	      1.30945800	      6.15230601	      8.04296285	      0.00000000	     95.14072655	    -35.54627513	    -16.50311819	     66.93487009	     -5.65660902	     -9.40271998	      1.16823387	      0.81218641	     15.97300695	      0.00000000
      5.08500000	      6.84326251	    -37.82377625	      8.87505267	     -0.06393982	      0.64657681	     -1.11957153	    106.82950839	    -43.17858937	     -4.14779274	     74.63869043	     -9.03364216	      9.64126782	      1.30269090	      6.07625353	      8.48226296	      0.00000000	     94.47689261	    -34.93275634	    -17.05288534	     66.59244488	     -6.06477582	     -9.67474301	      1.16225742	      0.84891065	     15.95339117	      0.00000000
      5.09000000	      6.54525089	    -38.11720364	      8.67172911	     -0.06443679	      0.64688346	     -1.11980974	    106.89906923	    -42.88521444	     -3.72813631	     74.53528777	     -8.42472776	      9.33706863	      1.30088618	      6.00449973	      8.45315764	      0.00000000	     94.75889921	    -35.22512141	    -16.40260204	     66.65076508	     -5.47277838	     -9.39483120	      1.16327530	      0.82367117	     15.83540277	      0.00000000
      5.09500000	      6.67394915	    -37.66377000	      8.94722700	     -0.06318705	      0.64880368	     -1.12043057	    106.31478610	    -43.15586129	     -4.28182391	     74.16660062	     -8.96233097	      9.64159877	      1.29445138	      5.96394719	      8.74601401	      0.00000000	     93.72439633	    -34.99633303	    -17.43011306	     66.26958541	     -5.86704292	     -9.67577376	      1.15662246	      0.85687524	     15.92340610	      0.00000000
      5.10000000	      6.15240661	    -37.92487246	      8.72031497	     -0.06361106	      0.64909852	     -1.12060860	    106.37987164	    -42.63225488	     -3.75363470	     74.06326395	     -8.35439045	      9.32511745	      1.29264781	      5.92304526	      8.78218079	      0.00000000	     93.84693064	    -35.51417026	    -16.96369660	     66.33745084	     -5.29219810	     -9.39611980	      1.15780693	      0.88467074	     15.92803667	      0.00000000
      5.10500000	      6.66201901	    -37.52488618	      8.87719021	     -0.06237898	      0.65106042	     -1.12132673	    105.60882624	    -43.35538137	     -4.75034003	     73.67005847	     -8.90163172	      9.64569764	      1.28578508	      5.87929625	      9.04737444	      0.00000000	     93.22014872	    -34.87471964	    -17.44456535	     65.97361563	     -5.66096756	     -9.67089484	      1.15145681	      0.87332580	     15.86287918	      0.00000000
      5.11000000	      6.58036601	    -37.46889597	      8.88200302	     -0.06193524	      0.65221409	     -1.12174881	    105.31991130	    -43.35254937	     -4.87814074	     73.41880023	     -8.86483585	      9.64589416	      1.28139980	      5.83481867	      9.19585389	      0.00000000	     92.88889711	    -34.89049300	    -17.58286069	     65.80373436	     -5.57763979	     -9.66836543	      1.14849182	      0.91217039	     15.89445363	      0.00000000
      5.11500000	      6.05782413	    -37.69149963	      8.71596137	     -0.06233250	      0.65248459	     -1.12196700	    105.42969579	    -42.81318827	     -4.20404652	     73.33396609	     -8.21820775	      9.34490889	      1.27991916	      5.76969404	      9.07575556	      0.00000000	     92.91611659	    -35.41289891	    -17.25174284	     65.86989441	     -5.03468729	     -9.38241264	      1.14964654	      0.91810366	     15.90496588	      0.00000000
      5.12000000	      6.41480874	    -37.29828645	      8.91383396	     -0.06103557	      0.65446300	     -1.12259184	    104.73670691	    -43.34348969	     -5.05899726	     72.94412394	     -8.78029539	      9.64846052	      1.27311513	      5.71559246	      9.41906784	      0.00000000	     92.15282834	    -34.93483132	    -17.90110646	     65.48405094	     -5.37617123	     -9.66725710	      1.14291230	      0.91092258	     15.86223373	      0.00000000
      5.12500000	      6.29393383	    -37.22332763	      8.99949192	     -0.06055551	      0.65559925	     -1.12299061	    104.54003323	    -43.27094457	     -5.00729733	     72.71476062	     -8.72591253	      9.64902931	      1.26911199	      5.66585396	      9.48828688	      0.00000000	     91.69892767	    -34.99918103	    -18.20245724	     65.30485848	     -5.28289519	     -9.66748646	      1.13978480	      0.92708522	     15.90968266	      0.00000000
      5.13000000	      6.19677268	    -37.11060272	      9.03297804	     -0.06003122	      0.65672879	     -1.12338434	    104.24047436	    -43.25420362	     -5.05323436	     72.48488043	     -8.67043594	      9.64796295	      1.26509982	      5.60857573	      9.62074167	      0.00000000	     91.27115575	    -35.02934043	    -18.42880299	     65.13548528	     -5.21997410	     -9.66655180	      1.13682868	      0.94913181	     15.93487884	      0.00000000
      5.13500000	      6.13164535	    -37.03280540	      9.03334234	     -0.05954837	      0.65788826	     -1.12375830	    103.92315685	    -43.25800058	     -5.17450280	     72.24279239	     -8.62884476	      9.64799216	      1.26087459	      5.56145048	      9.73694859	      0.00000000	     90.92640422	    -35.02896548	    -18.54002067	     64.96506203	     -5.11257423	     -9.66514700	      1.13385423	      0.94800416	     15.92246053	      0.00000000
      5.14000000	      5.35048377	    -37.34168468	      8.68568184	     -0.06006464	      0.65829923	     -1.12377521	    103.96044491	    -42.41539793	     -4.56242667	     72.09905327	     -7.95479260	      9.34528714	      1.25836587	      5.48061331	      9.43119081	      0.00000000	     91.01084129	    -35.78037072	    -18.12629792	     65.01493396	     -4.52396091	     -9.38333088	      1.13472466	      0.95210665	     15.88687107	      0.00000000
      5.14500000	      6.10778653	    -36.93302785	      8.92463480	     -0.05855870	      0.66023421	     -1.12444086	    103.17761643	    -43.39799742	     -5.65861551	     71.74109263	     -8.53355982	      9.65019081	      1.25211828	      5.47666705	      9.95260241	      0.00000000	     90.45442318	    -34.92772700	    -18.48943196	     64.62854990	     -4.87421977	     -9.66150892	      1.12798099	      0.94155118	     15.82774530	      0.00000000
      5.15000000	      5.73242518	    -37.17717325	      8.91656114	     -0.05890351	      0.66067188	     -1.12460374	    103.41763459	    -42.95394227	     -4.80641186	     71.65741541	     -7.85236600	      9.34825993	      1.25065783	      5.39084832	      9.77981076	      0.00000000	     90.40758969	    -35.28168721	    -18.30954277	     64.60177037	     -4.39388121	     -9.37491813	      1.12751360	      0.90622838	     15.80839878	      0.00000000
      5.15500000	      6.10040407	    -36.86652746	      8.80376313	     -0.05757224	      0.66252697	     -1.12504431	    102.45648279	    -43.53775161	     -6.14093785	     71.26402333	     -8.41335071	      9.65226496	      1.24379185	      5.39512268	     10.14688610	      0.00000000	     90.04566658	    -34.83245231	    -18.38970620	     64.30335545	     -4.62217051	     -9.65454905	      1.12230527	      0.94028808	     15.74557289	      0.00000000
      5.16000000	      5.85323748	    -36.78558131	      8.82090395	     -0.05702706	      0.66365828	     -1.12528276	    102.21771906	    -43.32778013	     -6.08623910	     71.03749005	     -8.35905974	      9.64864001	      1.23983809	      5.33914966	     10.22653474	      0.00000000	     89.56081809	    -35.01699888	    -18.71520664	     64.13388230	     -4.54399988	     -9.65277737	      1.11934741	      0.97596896	     15.85989864	      0.00000000
